<?xml version="1.0" encoding="utf-8"?>
<!-- Generator: Adobe Illustrator 16.0.0, SVG Export Plug-In . SVG Version: 6.00 Build 0)  -->
<!DOCTYPE svg PUBLIC "-//W3C//DTD SVG 1.1//EN" "http://www.w3.org/Graphics/SVG/1.1/DTD/svg11.dtd">
<svg version="1.1" id="Layer_1" xmlns="http://www.w3.org/2000/svg" xmlns:xlink="http://www.w3.org/1999/xlink" x="0px" y="0px"
	 width="107.078px" height="14px" viewBox="0 0 107.078 14" enable-background="new 0 0 107.078 14" xml:space="preserve">
<g>
	<path fill="#FFFFFF" d="M2.543,13.848H0V0.151h2.543V13.848z"/>
	<path fill="#FFFFFF" d="M17.066,0.151v13.697h-1.3c-0.202,0-0.369-0.033-0.504-0.1c-0.135-0.065-0.266-0.178-0.391-0.336
		L7.761,4.281c0.038,0.417,0.057,0.803,0.057,1.156v8.411H5.585V0.151h1.328c0.107,0,0.199,0.006,0.278,0.015
		c0.078,0.009,0.147,0.029,0.207,0.056c0.06,0.029,0.118,0.07,0.174,0.125C7.629,0.4,7.692,0.471,7.761,0.559L14.9,9.728
		c-0.019-0.222-0.035-0.438-0.047-0.653c-0.013-0.215-0.019-0.413-0.019-0.597V0.151H17.066z"/>
	<path fill="#FFFFFF" d="M24.525,0.151c0.911,0,1.698,0.108,2.364,0.323c0.665,0.215,1.215,0.515,1.648,0.9
		c0.433,0.385,0.754,0.847,0.965,1.383s0.316,1.124,0.316,1.762c0,0.662-0.11,1.27-0.33,1.823c-0.22,0.553-0.549,1.029-0.989,1.425
		c-0.44,0.398-0.991,0.708-1.653,0.929c-0.663,0.222-1.436,0.332-2.322,0.332h-1.893v4.82h-2.534V0.151H24.525z M24.525,7.039
		c0.464,0,0.87-0.059,1.215-0.176c0.345-0.117,0.632-0.285,0.861-0.501c0.229-0.218,0.4-0.483,0.513-0.797
		c0.113-0.312,0.17-0.661,0.17-1.045c0-0.367-0.057-0.698-0.17-0.995c-0.113-0.297-0.282-0.548-0.508-0.757
		c-0.226-0.209-0.512-0.368-0.857-0.479c-0.345-0.11-0.753-0.165-1.224-0.165h-1.893v4.916H24.525z"/>
	<path fill="#FFFFFF" d="M37.24,11.792c0.49,0,0.928-0.082,1.314-0.245c0.386-0.165,0.711-0.396,0.975-0.692
		s0.466-0.656,0.607-1.079c0.141-0.424,0.211-0.896,0.211-1.421V0.151h2.534v8.204c0,0.813-0.13,1.566-0.391,2.259
		c-0.261,0.691-0.634,1.288-1.12,1.791c-0.487,0.501-1.079,0.893-1.775,1.174C38.898,13.859,38.113,14,37.24,14
		c-0.879,0-1.667-0.142-2.364-0.422c-0.697-0.281-1.289-0.673-1.775-1.174c-0.487-0.503-0.86-1.1-1.121-1.791
		c-0.261-0.692-0.391-1.445-0.391-2.259V0.151h2.534v8.193c0,0.526,0.07,0.999,0.211,1.421c0.142,0.425,0.345,0.785,0.613,1.085
		c0.267,0.3,0.593,0.532,0.979,0.697C36.313,11.71,36.75,11.792,37.24,11.792z"/>
	<path fill="#FFFFFF" d="M55.258,2.245h-4.106v11.603h-2.534V2.245h-4.105V0.151h10.746V2.245z"/>
	<path fill="#FFFFFF" d="M59.59,2.179v4.054h5.105v2.037H59.59v5.579h-2.543V0.151h8.59v2.027H59.59z"/>
	<path fill="#FFFFFF" d="M80.574,7.001c0,1.002-0.164,1.933-0.494,2.789c-0.33,0.856-0.797,1.596-1.398,2.222
		c-0.604,0.625-1.328,1.113-2.176,1.463C75.658,13.825,74.717,14,73.682,14c-1.029,0-1.969-0.176-2.818-0.526
		c-0.846-0.35-1.574-0.838-2.18-1.463c-0.605-0.626-1.074-1.365-1.408-2.222c-0.332-0.855-0.5-1.786-0.5-2.789
		c0-1.005,0.168-1.935,0.5-2.791c0.334-0.854,0.803-1.595,1.408-2.221c0.605-0.624,1.334-1.112,2.18-1.463
		C71.713,0.176,72.652,0,73.682,0c0.689,0,1.34,0.08,1.947,0.242c0.609,0.161,1.17,0.388,1.678,0.682s0.965,0.65,1.371,1.069
		c0.402,0.421,0.748,0.889,1.031,1.408c0.281,0.518,0.496,1.08,0.645,1.686S80.574,6.331,80.574,7.001z M77.984,7.001
		c0-0.751-0.1-1.426-0.301-2.023c-0.203-0.597-0.486-1.104-0.857-1.521c-0.371-0.417-0.82-0.734-1.352-0.956
		c-0.529-0.221-1.129-0.332-1.793-0.332c-0.666,0-1.266,0.111-1.795,0.332c-0.531,0.221-0.984,0.539-1.355,0.956
		c-0.375,0.417-0.662,0.924-0.863,1.521c-0.201,0.597-0.301,1.271-0.301,2.023c0,0.75,0.1,1.425,0.301,2.022
		c0.201,0.596,0.488,1.102,0.863,1.516c0.371,0.413,0.824,0.729,1.355,0.951c0.529,0.221,1.129,0.332,1.795,0.332
		c0.664,0,1.264-0.111,1.793-0.332c0.531-0.222,0.98-0.538,1.352-0.951c0.371-0.414,0.654-0.92,0.857-1.516
		C77.885,8.426,77.984,7.751,77.984,7.001z"/>
	<path fill="#FFFFFF" d="M95.795,7.001c0,1.002-0.164,1.933-0.494,2.789c-0.33,0.856-0.795,1.596-1.398,2.222
		c-0.604,0.625-1.328,1.113-2.176,1.463C90.879,13.825,89.938,14,88.9,14c-1.029,0-1.969-0.176-2.816-0.526
		c-0.846-0.35-1.574-0.838-2.18-1.463c-0.605-0.626-1.076-1.365-1.408-2.222c-0.334-0.855-0.498-1.786-0.498-2.789
		c0-1.005,0.164-1.935,0.498-2.791c0.332-0.854,0.803-1.595,1.408-2.221c0.605-0.624,1.334-1.112,2.18-1.463
		C86.932,0.176,87.871,0,88.9,0c0.691,0,1.34,0.08,1.949,0.242c0.609,0.161,1.17,0.388,1.678,0.682s0.965,0.65,1.371,1.069
		c0.404,0.421,0.748,0.889,1.029,1.408c0.283,0.518,0.498,1.08,0.645,1.686C95.721,5.693,95.795,6.331,95.795,7.001z M93.205,7.001
		c0-0.751-0.102-1.426-0.301-2.023c-0.201-0.597-0.488-1.104-0.857-1.521c-0.371-0.417-0.822-0.734-1.352-0.956
		C90.164,2.28,89.566,2.169,88.9,2.169s-1.264,0.111-1.793,0.332c-0.531,0.221-0.984,0.539-1.357,0.956
		c-0.373,0.417-0.66,0.924-0.861,1.521c-0.203,0.597-0.303,1.271-0.303,2.023c0,0.75,0.1,1.425,0.303,2.022
		c0.201,0.596,0.488,1.102,0.861,1.516c0.373,0.413,0.826,0.729,1.357,0.951c0.529,0.221,1.127,0.332,1.793,0.332
		s1.264-0.111,1.795-0.332c0.529-0.222,0.98-0.538,1.352-0.951c0.369-0.414,0.656-0.92,0.857-1.516
		C93.104,8.426,93.205,7.751,93.205,7.001z"/>
	<path fill="#FFFFFF" d="M107.078,2.245h-4.105v11.603h-2.533V2.245h-4.107V0.151h10.746V2.245z"/>
</g>
</svg>
